<svg xmlns="http://www.w3.org/2000/svg" xmlns:xlink="http://www.w3.org/1999/xlink" width="50" zoomAndPan="magnify" viewBox="0 0 375 374.999991" height="39" preserveAspectRatio="xMidYMid meet" version="1.0"><defs><clipPath id="a14dc19a1e"><path d="M 187.5 0 C 83.945312 0 0 83.945312 0 187.5 C 0 291.054688 83.945312 375 187.5 375 C 291.054688 375 375 291.054688 375 187.5 C 375 83.945312 291.054688 0 187.5 0 " clip-rule="nonzero"/></clipPath><clipPath id="fbc05d6f31"><path d="M 80.679688 71.074219 L 294.429688 71.074219 L 294.429688 303.574219 L 80.679688 303.574219 Z M 80.679688 71.074219 " clip-rule="nonzero"/></clipPath></defs><rect x="-37.5" width="450" fill="#ffffff" y="-37.499999" height="449.999989" fill-opacity="1"/><rect x="-37.5" width="450" fill="#ffffff" y="-37.499999" height="449.999989" fill-opacity="1"/><rect x="-37.5" width="450" fill="#ffffff" y="-37.499999" height="449.999989" fill-opacity="1"/><g clip-path="url(#a14dc19a1e)"><rect x="-37.5" width="450" fill="#ffffff" y="-37.499999" height="449.999989" fill-opacity="1"/><path stroke-linecap="butt" transform="matrix(0.75, 0, 0, 0.75, 0.0000045, 0.000000000000021316)" fill="none" stroke-linejoin="miter" d="M 249.999994 -0.000000000000028422 C 111.927078 -0.000000000000028422 -0.000006 111.927084 -0.000006 250 C -0.000006 388.072917 111.927078 500.000001 249.999994 500.000001 C 388.072911 500.000001 499.999995 388.072917 499.999995 250 C 499.999995 111.927084 388.072911 -0.000000000000028422 249.999994 -0.000000000000028422 " stroke="#000000" stroke-width="8" stroke-opacity="1" stroke-miterlimit="4"/></g><path fill="#000000" d="M 162.585938 73.824219 C 161.636719 73.820312 157.683594 75.902344 155.816406 77.386719 C 154.761719 78.226562 143.714844 82.429688 136.121094 84.882812 C 127.535156 87.652344 125.070312 88.328125 120.46875 89.199219 C 113.261719 90.5625 109.15625 93.71875 105.832031 100.4375 C 104.890625 102.34375 103.773438 105.390625 103.351562 107.214844 C 102.929688 109.039062 102.386719 110.738281 102.144531 110.984375 C 101.902344 111.230469 101.703125 112.3125 101.703125 113.394531 C 101.703125 115.28125 101.503906 115.6875 98.621094 119.585938 C 98.214844 120.132812 97.714844 121.992188 97.503906 123.71875 C 97.230469 126.003906 96.832031 127.191406 96.03125 128.039062 C 95.109375 129.019531 94.859375 129.992188 94.496094 134.082031 C 94.027344 139.363281 93.804688 140.273438 90.5625 150.5625 C 88.066406 158.484375 86.023438 166.292969 84.660156 173.058594 C 83.621094 178.226562 82.757812 185.859375 83.078125 187.109375 C 83.191406 187.542969 84.171875 188.222656 85.257812 188.617188 L 89.886719 190.296875 C 98.058594 193.261719 100.675781 193.765625 108.960938 193.957031 L 116.925781 194.140625 L 118.59375 195.800781 C 120.042969 197.25 120.546875 197.464844 122.609375 197.464844 C 123.90625 197.464844 124.96875 197.613281 124.96875 197.808594 C 124.96875 198.769531 122.429688 208.238281 121.894531 209.285156 C 120.929688 211.179688 120.582031 217.191406 121.21875 220.910156 C 122.070312 225.894531 121.960938 227.597656 120.476562 232.503906 C 118.902344 237.707031 119.058594 239.421875 121.613281 245.230469 C 123.3125 249.101562 123.417969 251.011719 122.113281 254.304688 C 121.03125 257.050781 120.898438 259.585938 121.757812 261.089844 C 122.160156 261.796875 122.441406 265.8125 122.636719 273.726562 C 122.925781 285.453125 123.78125 292.109375 125.160156 293.527344 C 125.621094 294 126.410156 294.042969 128.5625 293.703125 C 131.730469 293.199219 142.34375 293.742188 146.082031 294.605469 C 147.390625 294.90625 151.027344 295.867188 154.160156 296.734375 C 159.867188 298.3125 168.15625 300.058594 171.71875 300.429688 C 172.761719 300.539062 178.214844 300.574219 183.828125 300.503906 C 192.097656 300.402344 194.976562 300.175781 199.015625 299.34375 C 207.457031 297.601562 211.683594 296.261719 220.878906 292.394531 C 231 288.140625 238.410156 285.886719 244.246094 285.292969 C 246.632812 285.050781 247.585938 284.742188 247.921875 284.117188 C 248.527344 282.988281 248.503906 272.851562 247.886719 268.191406 C 247.617188 266.15625 246.945312 263.179688 246.394531 261.582031 L 245.398438 258.6875 L 247.144531 254.617188 C 250.519531 246.773438 251.015625 240.582031 248.542969 236.949219 C 247.625 235.597656 247.417969 234.855469 247.65625 233.734375 C 250.457031 220.734375 250.898438 209.820312 249.03125 199.882812 L 248.726562 198.28125 L 251.992188 198.648438 C 257.894531 199.3125 260.40625 198.644531 263.265625 195.644531 C 264.289062 194.566406 265.21875 194.132812 267.0625 193.882812 C 272.863281 193.097656 280.492188 191.121094 286.59375 188.816406 C 292.261719 186.671875 292.15625 186.851562 290.636719 181.839844 C 290.121094 180.140625 289.035156 176.398438 288.230469 173.53125 C 286.289062 166.621094 283.484375 157.601562 280.582031 148.933594 C 278.457031 142.589844 278.242188 141.582031 278.523438 139.175781 C 278.921875 135.757812 278.195312 133.054688 276.464844 131.515625 C 275.21875 130.40625 275.082031 129.972656 274.792969 125.875 C 274.492188 121.675781 272.652344 113.117188 271.636719 111.21875 C 271.378906 110.742188 271.167969 109.820312 271.167969 109.164062 C 271.167969 108.511719 270.59375 106.441406 269.898438 104.5625 C 267.976562 99.390625 264.351562 95.753906 258.140625 92.757812 C 255.511719 91.492188 250.476562 89.472656 246.953125 88.265625 C 227.808594 81.714844 223.980469 80.15625 219.179688 76.972656 C 216.933594 75.488281 216.25 75.242188 215.4375 75.632812 C 211.15625 77.679688 198.875 79.503906 189.316406 79.503906 C 179.746094 79.503906 173.035156 78.183594 166.027344 74.929688 C 164.722656 74.320312 163.171875 73.828125 162.585938 73.824219 Z M 161.945312 75.714844 C 162.222656 75.714844 162.875 76.546875 163.390625 77.558594 C 165.101562 80.90625 170.15625 87.136719 173.171875 89.621094 C 179.078125 94.480469 185.972656 96.785156 191.277344 95.664062 C 197.003906 94.449219 201.984375 91.914062 207.003906 87.667969 C 209.484375 85.566406 214.171875 80.378906 215.675781 78.078125 L 216.441406 76.921875 L 218.410156 78.21875 C 219.492188 78.929688 220.378906 79.734375 220.378906 79.996094 C 220.378906 81.125 217.398438 86.214844 214.941406 89.292969 C 209.914062 95.59375 203.347656 99.421875 194.742188 101.078125 C 184.308594 103.085938 174.621094 100.019531 166.328125 92.085938 C 161.886719 87.832031 157.246094 81.074219 157.246094 78.855469 C 157.246094 78.191406 160.949219 75.714844 161.945312 75.714844 Z M 223.433594 81.394531 C 223.503906 81.394531 225.035156 82.003906 226.835938 82.746094 C 228.632812 83.484375 231.390625 84.527344 232.957031 85.074219 L 244.765625 89.164062 C 255.316406 92.816406 260.632812 95.285156 263.613281 97.902344 C 265.914062 99.925781 268.355469 104.015625 269.238281 107.324219 C 269.839844 109.582031 269.65625 110.078125 266.246094 115.476562 L 264.324219 118.515625 L 263.667969 116.890625 C 262.640625 114.359375 261.730469 113.613281 259.695312 113.613281 C 258.238281 113.613281 257.496094 113.96875 255.980469 115.394531 C 253.796875 117.445312 253.351562 118.839844 251.710938 128.769531 C 251.128906 132.285156 250.566406 135.253906 250.464844 135.359375 C 250.363281 135.46875 250.28125 132.636719 250.28125 129.0625 C 250.28125 117.867188 248.34375 107.449219 246.265625 107.449219 C 245.078125 107.449219 244.507812 117.023438 245.175781 125.691406 C 245.457031 129.316406 245.761719 133.0625 246.238281 138.722656 C 247.371094 152.1875 246.9375 165.855469 245.023438 177.085938 C 243.542969 185.757812 243.167969 187.074219 235.078125 211.386719 C 231.429688 222.355469 228.230469 231.988281 227.96875 232.789062 C 227.398438 234.542969 227.34375 236.777344 227.878906 236.777344 C 228.855469 236.777344 231.476562 233.167969 237.867188 223.035156 L 238.910156 221.382812 L 238.589844 222.800781 C 238.066406 225.082031 235.867188 231.21875 232.570312 239.617188 C 229.035156 248.625 227.007812 253.042969 224.796875 256.5625 C 223.0625 259.316406 222.855469 260.351562 223.953125 260.769531 C 225.242188 261.265625 226.585938 259.421875 229.890625 252.644531 C 233.636719 244.964844 236.128906 238.6875 241.472656 223.511719 C 242.34375 221.035156 243.207031 218.644531 243.394531 218.1875 C 243.796875 217.195312 244.582031 217.546875 244.582031 218.726562 C 244.582031 219.191406 245.261719 220.917969 246.082031 222.5625 C 247.710938 225.808594 247.710938 225.898438 246.027344 234.175781 C 245.191406 238.289062 235.425781 256.496094 227.648438 268.449219 C 225.007812 272.507812 224.65625 273.960938 226.3125 273.960938 C 226.972656 273.960938 228.074219 272.742188 229.9375 269.9375 C 233.785156 264.144531 240.363281 252.773438 244.234375 245.222656 C 246.074219 241.636719 247.742188 238.808594 247.941406 238.929688 C 248.679688 239.386719 248.914062 242.984375 248.378906 245.640625 C 247.261719 251.195312 244.347656 258.152344 241.785156 261.410156 C 238.285156 265.855469 234.40625 269.976562 231.921875 271.890625 C 230.046875 273.335938 229.386719 274.148438 229.488281 274.867188 C 229.566406 275.410156 229.957031 275.914062 230.347656 275.988281 C 231.433594 276.195312 236.777344 271.5 241.015625 266.621094 L 244.804688 262.257812 L 245.351562 263.609375 C 246.226562 265.796875 247.050781 274.078125 246.878906 278.9375 L 246.722656 283.441406 L 245.296875 283.566406 C 239.042969 284.125 229.960938 286.847656 219.664062 291.253906 C 212.792969 294.195312 205.296875 296.519531 198.285156 297.875 C 192.4375 299.003906 178.140625 299.53125 171.953125 298.851562 C 166.972656 298.300781 159.246094 296.675781 153.921875 295.054688 C 147.976562 293.238281 142.261719 292.203125 138.085938 292.195312 C 136.222656 292.191406 134.265625 292.070312 133.742188 291.929688 C 132.539062 291.605469 126.039062 278.933594 126.605469 278.015625 C 127.164062 277.117188 130.214844 277.613281 139.203125 280.078125 C 145.625 281.84375 155.957031 284.429688 159.851562 285.246094 C 163.058594 285.921875 165.464844 286.390625 171.011719 287.429688 C 177.382812 288.621094 195.855469 290.316406 202.335938 290.304688 C 206.96875 290.296875 217.210938 289.089844 218.511719 288.398438 C 219.277344 287.988281 219.394531 287.714844 218.976562 287.300781 C 218.335938 286.664062 212.808594 286.773438 210.359375 287.476562 C 208.183594 288.097656 203.324219 288.058594 200.5625 287.394531 C 193.105469 285.597656 178.851562 280.285156 168.46875 275.433594 C 165.902344 274.230469 163.710938 273.25 163.601562 273.25 C 163.167969 273.25 154.085938 267.863281 150.90625 265.71875 C 145.695312 262.203125 139.984375 255.921875 136.414062 249.796875 C 134.746094 246.933594 132.246094 242.664062 130.863281 240.308594 C 124.832031 230.058594 123.089844 222.570312 126.734375 222.570312 C 127.765625 222.570312 128.925781 223.46875 132.085938 226.722656 C 135.433594 230.171875 136.800781 232.089844 140.101562 237.972656 C 145.164062 246.988281 149.378906 253.328125 153.402344 257.976562 C 156.78125 261.878906 158.671875 262.894531 158.671875 260.804688 C 158.671875 260.175781 158.210938 259.257812 157.65625 258.761719 C 156.429688 257.660156 152.496094 252.617188 152.496094 252.140625 C 152.496094 251.953125 153.613281 252.859375 154.984375 254.152344 C 166.308594 264.824219 185.0625 273.722656 202.574219 276.730469 C 214.261719 278.738281 215.152344 278.804688 215.152344 277.75 C 215.152344 277.359375 215.042969 277.039062 214.90625 277.039062 C 214.03125 277.039062 207.027344 274.933594 205.226562 274.128906 C 199.710938 271.65625 195.375 269.28125 194.503906 268.265625 C 193.984375 267.652344 192.0625 266.15625 190.234375 264.933594 C 172.910156 253.347656 152.371094 229.777344 141.554688 209.066406 C 139.921875 205.941406 138.117188 202.921875 137.539062 202.355469 C 135.375 200.246094 130.984375 184.179688 128.820312 170.457031 C 125.808594 151.335938 125.261719 127.550781 127.257812 102.730469 C 127.550781 99.070312 127.683594 98.667969 128.765625 98.148438 C 129.417969 97.832031 135.390625 95.816406 142.050781 93.664062 C 148.707031 91.511719 155.042969 89.367188 156.128906 88.890625 C 157.214844 88.414062 158.394531 88.140625 158.746094 88.285156 C 159.097656 88.433594 160.300781 89.707031 161.425781 91.105469 C 163.914062 94.207031 168.851562 98.261719 172.597656 100.28125 C 178.75 103.609375 186.476562 105.058594 193.179688 104.144531 C 205.515625 102.460938 214.667969 96.214844 221.164062 85.0625 C 222.339844 83.042969 223.359375 81.394531 223.433594 81.394531 Z M 117.511719 103.972656 C 118.179688 103.855469 118.210938 104.6875 117.53125 106.410156 C 116.695312 108.539062 115.59375 108.976562 114.476562 107.632812 C 113.925781 106.972656 114.089844 106.65625 115.65625 105.222656 C 116.488281 104.460938 117.113281 104.042969 117.511719 103.972656 Z M 112.664062 109.816406 C 112.875 109.816406 113.609375 110.304688 114.292969 110.894531 L 115.539062 111.960938 L 114.816406 115.039062 C 114.417969 116.730469 113.972656 118.910156 113.816406 119.886719 C 113.660156 120.863281 113.367188 121.667969 113.167969 121.667969 C 112.722656 121.667969 109.773438 118.660156 109.773438 118.207031 C 109.773438 118.023438 110.070312 117.878906 110.433594 117.878906 C 111.335938 117.878906 111.695312 116.78125 112.015625 113.019531 C 112.164062 111.261719 112.457031 109.816406 112.664062 109.816406 Z M 270.683594 114.078125 C 271.304688 114.078125 272.597656 120.136719 273.234375 126.039062 C 273.785156 131.113281 273.9375 131.652344 275.09375 132.558594 C 276.726562 133.839844 277.316406 136.058594 276.832031 139.121094 C 276.488281 141.277344 276.644531 142.152344 278.121094 146.417969 C 282.433594 158.886719 288.328125 178.628906 287.875 179.058594 C 287.386719 179.515625 283.339844 180.691406 275 182.808594 C 270.976562 183.832031 267.398438 184.671875 267.050781 184.671875 C 266.277344 184.671875 266.238281 182.296875 266.867188 172.511719 C 267.117188 168.648438 267.429688 154.875 267.5625 141.90625 L 267.8125 118.335938 L 269.054688 116.207031 C 269.742188 115.039062 270.476562 114.078125 270.683594 114.078125 Z M 259.632812 116.542969 C 260.851562 116.554688 261.191406 117.300781 261.132812 119.292969 C 261.09375 120.695312 260.613281 121.386719 258.03125 123.773438 L 254.984375 126.597656 L 255.285156 124.488281 C 255.453125 123.324219 255.757812 121.734375 255.972656 120.953125 C 256.1875 120.171875 256.492188 118.957031 256.648438 118.25 C 256.875 117.234375 257.289062 116.898438 258.644531 116.644531 C 259.023438 116.574219 259.351562 116.542969 259.632812 116.542969 Z M 108.234375 121.710938 C 108.566406 121.710938 109.257812 122.230469 110.613281 123.445312 L 113.121094 125.691406 L 112.570312 127.582031 C 112.007812 129.546875 112.171875 139.46875 113.066406 157.902344 C 113.304688 162.851562 113.730469 172.296875 114 178.882812 C 114.269531 185.472656 114.609375 191.054688 114.757812 191.292969 C 114.90625 191.527344 114.601562 191.949219 114.089844 192.222656 C 111.816406 193.4375 98.191406 192.070312 96.882812 190.496094 C 96.574219 190.128906 96.335938 188.828125 96.34375 187.601562 C 96.351562 186.265625 96.0625 185.042969 95.628906 184.542969 C 95.011719 183.835938 94.996094 183.417969 95.5 181.703125 C 96.742188 177.503906 100.257812 173.339844 105.171875 170.238281 C 106.6875 169.28125 108.046875 168.191406 108.191406 167.816406 C 108.816406 166.183594 107.636719 164.347656 103.132812 159.964844 L 98.429688 155.402344 L 98.921875 153.574219 C 99.195312 152.570312 100.039062 149.527344 100.796875 146.808594 C 101.558594 144.09375 102.179688 141.316406 102.179688 140.636719 C 102.179688 138.832031 103.433594 137.339844 105.792969 136.328125 C 108.113281 135.335938 108.386719 134.453125 107.128906 132.027344 C 106.457031 130.734375 106.460938 130.222656 107.121094 126.722656 C 107.519531 124.59375 107.90625 122.484375 107.980469 122.03125 C 108.011719 121.828125 108.085938 121.714844 108.234375 121.710938 Z M 264.699219 123.15625 C 264.730469 123.152344 264.765625 123.164062 264.792969 123.191406 C 265.195312 123.59375 263.984375 184.964844 263.539062 186.644531 C 263.03125 188.558594 261.050781 190.480469 258.46875 191.558594 C 257.554688 191.9375 256.398438 192.25 255.890625 192.25 C 254.988281 192.25 254.972656 191.890625 255.285156 177.203125 C 255.558594 164.402344 255.746094 161.640625 256.550781 158.617188 C 257.992188 153.167969 258.628906 150.578125 259.285156 147.476562 C 259.613281 145.914062 260.046875 143.996094 260.253906 143.214844 C 260.460938 142.433594 260.984375 139.773438 261.414062 137.296875 C 261.847656 134.824219 262.40625 131.898438 262.652344 130.804688 C 262.894531 129.714844 263.097656 128.164062 263.097656 127.355469 C 263.097656 126.027344 264.222656 123.167969 264.699219 123.15625 Z M 260.832031 124.742188 L 260.566406 126.167969 C 260.417969 126.949219 260.164062 128.546875 259.996094 129.71875 C 259.457031 133.5625 256.128906 149.613281 255.808594 149.933594 C 255.707031 150.035156 255.492188 149.460938 255.332031 148.65625 C 255.171875 147.847656 254.824219 147.316406 254.5625 147.476562 C 254.304688 147.636719 253.890625 148.449219 253.648438 149.285156 C 253.066406 151.289062 253.003906 141.332031 253.566406 136.492188 C 253.914062 133.515625 254.230469 132.695312 256.101562 130.09375 C 257.277344 128.453125 258.828125 126.582031 259.539062 125.929688 Z M 288.503906 181.988281 C 288.921875 181.957031 289.210938 182.273438 289.382812 182.957031 C 289.542969 183.589844 289.796875 184.429688 289.949219 184.828125 C 290.132812 185.304688 289.761719 185.792969 288.851562 186.261719 C 286.578125 187.433594 278.839844 189.875 273.539062 191.089844 C 267.820312 192.40625 265.945312 192.53125 265.945312 191.601562 C 265.945312 191.25 266.078125 190.003906 266.238281 188.835938 C 266.5 186.921875 266.632812 186.738281 267.636719 186.929688 C 268.675781 187.125 274.324219 186.09375 277.570312 185.109375 C 278.355469 184.875 280.921875 184.140625 283.269531 183.46875 C 285.621094 182.796875 287.894531 182.136719 288.320312 182.015625 C 288.386719 181.996094 288.445312 181.992188 288.503906 181.988281 Z M 118.96875 182.363281 C 118.976562 182.359375 118.984375 182.363281 118.996094 182.371094 C 119.179688 182.539062 120.078125 185.308594 121 188.527344 C 121.921875 191.746094 122.792969 194.753906 122.929688 195.207031 C 123.109375 195.796875 122.910156 196.039062 122.261719 196.039062 C 120.574219 196.039062 119.660156 194.917969 119.535156 192.699219 C 119.472656 191.539062 119.25 188.671875 119.042969 186.324219 C 118.847656 184.128906 118.820312 182.429688 118.96875 182.363281 Z M 262.878906 192.632812 C 263.019531 192.613281 263.097656 192.628906 263.097656 192.6875 C 263.097656 193.449219 260.652344 196.054688 259.265625 196.769531 C 257.660156 197.597656 255.21875 197.675781 254.746094 196.917969 C 254.371094 196.3125 255.773438 195.089844 256.839844 195.089844 C 257.214844 195.089844 258.773438 194.453125 260.308594 193.675781 C 261.457031 193.09375 262.453125 192.695312 262.878906 192.632812 Z M 125.410156 203.890625 C 125.523438 203.902344 125.640625 204.152344 125.8125 204.566406 C 126.574219 206.410156 128.195312 210.84375 128.527344 212.027344 C 128.695312 212.613281 128.757812 213.085938 128.675781 213.074219 C 128.59375 213.066406 127.496094 212.109375 126.230469 210.949219 L 123.9375 208.839844 L 124.632812 206.109375 C 125.035156 204.515625 125.21875 203.875 125.410156 203.890625 Z M 133.296875 215.777344 C 133.476562 215.839844 134.316406 217.105469 135.425781 219.011719 C 141.929688 230.1875 148.285156 237.652344 157.246094 244.628906 C 162.367188 248.617188 166.265625 252.417969 166.265625 253.429688 C 166.265625 255.269531 161.96875 253.8125 155.953125 249.925781 C 151.167969 246.832031 148.847656 244.222656 144.601562 237.199219 C 142.496094 233.710938 139.867188 229.402344 138.773438 227.628906 C 136.851562 224.507812 133.96875 218.363281 133.285156 215.933594 C 133.25 215.8125 133.253906 215.765625 133.292969 215.777344 Z M 121.128906 236.539062 L 122.023438 238.675781 C 127.285156 251.214844 133.839844 261.753906 138.867188 265.757812 C 140.933594 267.402344 154.101562 274.195312 155.234375 274.203125 C 155.703125 274.203125 161.964844 276.769531 163.730469 277.679688 C 164.507812 278.082031 165.421875 278.742188 165.761719 279.148438 C 166.652344 280.222656 165.964844 280.066406 158.671875 277.644531 C 153.046875 275.773438 139.960938 270.265625 131.253906 266.09375 C 128.058594 264.5625 125.15625 263.308594 124.804688 263.308594 C 124.453125 263.308594 123.769531 262.125 123.277344 260.679688 C 122.382812 258.054688 122.378906 258.042969 123.433594 255.109375 C 124.898438 251.035156 124.800781 248.449219 123.046875 244.710938 C 122.257812 243.023438 121.507812 240.5 121.375 239.097656 Z M 124.183594 265.675781 C 124.300781 265.675781 127.140625 267.015625 130.496094 268.652344 L 140.15625 273.363281 C 144.269531 275.367188 144.203125 275.390625 138.492188 273.980469 C 132.058594 272.394531 128.121094 271.734375 126.085938 271.910156 L 124.257812 272.074219 L 124.109375 268.871094 C 124.03125 267.109375 124.066406 265.675781 124.183594 265.675781 Z M 124.183594 265.675781 " fill-opacity="0.0706" fill-rule="nonzero"/><g clip-path="url(#fbc05d6f31)"><path fill="#000000" d="M 163.152344 71.070312 C 163.050781 71.066406 162.949219 71.074219 162.839844 71.078125 L 162.824219 71.078125 C 162.738281 71.078125 162.640625 71.097656 162.539062 71.117188 C 162.527344 71.117188 162.515625 71.113281 162.503906 71.117188 C 161.199219 71.320312 159.253906 72.257812 155.96875 74.183594 C 149.796875 77.804688 130.429688 84.640625 121.003906 86.527344 C 115.558594 87.617188 112.070312 89.042969 109.195312 91.347656 C 107 93.105469 103.6875 97.914062 102.222656 101.464844 C 100.722656 105.105469 98.773438 111.859375 98.773438 113.414062 C 98.773438 114.273438 98.152344 115.601562 97.15625 116.894531 C 95.46875 119.078125 94.507812 121.746094 94.503906 124.261719 C 94.5 125.074219 94.203125 125.992188 93.835938 126.296875 C 92.386719 127.496094 91.597656 130.1875 91.402344 134.613281 C 91.242188 138.171875 90.808594 140.269531 89.304688 144.902344 C 85.078125 157.925781 82.148438 169.207031 81.449219 175.125 C 81.347656 175.96875 81.191406 178.171875 81.054688 180.621094 C 81.046875 180.730469 81.042969 180.824219 81.035156 180.929688 C 80.964844 182.003906 80.898438 183.066406 80.863281 184.042969 C 80.820312 185.171875 80.800781 186.054688 80.789062 186.800781 C 80.761719 188.507812 80.8125 189.375 81.007812 189.878906 C 81.011719 189.890625 81.015625 189.902344 81.019531 189.914062 C 81.328125 190.96875 82 191.222656 83.257812 191.484375 C 84.089844 191.660156 85.941406 192.292969 87.375 192.890625 C 90.042969 194.003906 94.949219 195.527344 98.773438 196.441406 C 99.949219 196.722656 104.214844 197.078125 108.261719 197.226562 C 115.140625 197.484375 115.703125 197.570312 116.824219 198.617188 C 117.484375 199.230469 118.738281 199.984375 119.605469 200.285156 C 120.070312 200.449219 120.398438 200.5625 120.621094 200.707031 L 120.628906 200.714844 C 120.765625 200.820312 120.867188 200.945312 120.949219 201.089844 C 121.074219 201.40625 121.011719 201.878906 120.878906 202.714844 C 120.710938 203.75 120.128906 205.800781 119.585938 207.269531 C 119.042969 208.742188 118.402344 211.222656 118.152344 212.785156 C 117.648438 215.902344 117.976562 222.222656 118.78125 224.917969 C 119.207031 226.335938 119.128906 227.082031 118.351562 229.183594 C 115.863281 235.914062 115.972656 240.492188 118.753906 246.355469 C 120.386719 249.796875 120.453125 251.039062 119.183594 254 C 118.113281 256.492188 117.941406 260.410156 118.828125 261.96875 C 119.230469 262.675781 119.507812 266.761719 119.707031 274.84375 C 119.949219 284.835938 120.15625 287.378906 121.058594 291.121094 C 121.917969 294.664062 122.234375 296.183594 123.832031 296.78125 L 123.859375 296.789062 C 124.3125 297.015625 124.855469 297.105469 125.523438 297.089844 C 126.773438 297.175781 128.472656 297.101562 130.894531 297.007812 C 139.5 296.683594 144.0625 297.246094 152.757812 299.695312 C 159.332031 301.542969 162.386719 302.1875 168.074219 302.953125 C 168.609375 303.023438 169.597656 303.097656 170.828125 303.164062 C 171.125 303.226562 171.339844 303.289062 171.375 303.328125 C 171.53125 303.480469 174.710938 303.488281 178.824219 303.417969 L 178.933594 303.417969 C 179.664062 303.429688 180.398438 303.433594 181.128906 303.4375 C 198.085938 303.554688 205.398438 302.132812 221.472656 295.585938 C 233.984375 290.488281 238.300781 289.195312 245.523438 288.390625 C 247.617188 288.15625 249.546875 287.761719 249.804688 287.503906 C 251.898438 285.414062 251.359375 266.65625 249.042969 261.128906 C 248.382812 259.546875 248.421875 259.273438 249.695312 256.191406 C 252.074219 250.425781 252.746094 247.605469 252.742188 243.34375 C 252.738281 240.078125 252.535156 238.917969 251.652344 237.21875 C 250.453125 234.90625 250.464844 234.367188 251.90625 227 C 252.539062 223.773438 252.753906 220.234375 252.777344 212.457031 L 252.804688 202.214844 L 253.261719 202.1875 L 255.714844 202.1875 C 259.179688 202.1875 261.695312 201.238281 263.957031 199.074219 C 265.429688 197.660156 266.210938 197.367188 270.917969 196.480469 C 280.296875 194.710938 291.605469 190.882812 293.53125 188.820312 C 293.765625 188.566406 293.9375 188.359375 294.054688 188.117188 L 294.0625 188.097656 C 294.25 187.816406 294.335938 187.539062 294.335938 187.257812 C 294.335938 187.03125 294.234375 186.484375 294.070312 185.75 C 293.945312 184.957031 293.742188 183.921875 293.449219 182.464844 C 292.582031 178.128906 286.070312 156.6875 282.664062 146.941406 C 281.21875 142.800781 281.046875 141.839844 281.308594 139.335938 C 281.675781 135.875 281.039062 133.28125 279.222656 130.78125 C 278.179688 129.339844 277.8125 128.183594 277.570312 125.613281 C 276.992188 119.5 273.34375 105.214844 271.367188 101.328125 C 267.75 94.226562 262.347656 90.957031 243.636719 84.554688 C 230.226562 79.96875 224.824219 77.75 221.132812 75.28125 C 219.234375 74.011719 217.292969 72.824219 216.824219 72.652344 C 216.332031 72.472656 214.8125 72.820312 213.265625 73.464844 C 207.933594 75.679688 198.96875 77.03125 189.433594 77.050781 C 179.246094 77.074219 173.679688 75.808594 163.945312 71.261719 C 163.710938 71.152344 163.449219 71.085938 163.148438 71.070312 Z M 162.238281 75.179688 C 162.242188 75.179688 162.242188 75.175781 162.246094 75.179688 C 162.25 75.179688 162.253906 75.1875 162.253906 75.1875 L 164.523438 79.078125 C 167.390625 84 174.171875 90.863281 178.292969 93.027344 C 179.863281 93.851562 182.746094 94.894531 184.695312 95.335938 C 187.765625 96.035156 188.65625 96.058594 191.328125 95.539062 C 195.09375 94.804688 199.316406 92.964844 203.03125 90.433594 C 205.777344 88.558594 212.75 81.675781 215.113281 78.511719 L 216.339844 76.875 L 218.546875 78.273438 C 219.914062 79.136719 220.757812 80.015625 220.757812 80.574219 C 220.761719 81.863281 217.894531 86.765625 215.207031 90.078125 C 210.15625 96.296875 203.597656 100.238281 195.480469 101.929688 C 180.957031 104.953125 165.535156 97.089844 158.246094 82.949219 C 156.15625 78.886719 156.21875 78.625 159.820312 76.554688 L 162.234375 75.179688 Z M 166.007812 77.167969 C 166.414062 77.191406 167.855469 77.621094 169.492188 78.210938 C 175.394531 80.335938 178.082031 80.917969 185.109375 81.039062 C 187.835938 81.324219 189.582031 81.324219 192.929688 81.039062 C 200.640625 80.902344 205.660156 80.289062 210.3125 78.957031 C 211.195312 78.707031 212.003906 78.582031 212.105469 78.683594 C 212.207031 78.785156 210.9375 80.292969 209.285156 82.027344 C 206.242188 85.21875 206.050781 85.3125 200.585938 86.554688 C 197.699219 87.210938 185.847656 87.492188 181.878906 86.992188 C 179.945312 86.75 176.625 86.015625 174.496094 85.367188 C 170.636719 84.191406 170.613281 84.1875 168.15625 80.792969 C 166.800781 78.921875 165.789062 77.296875 165.898438 77.1875 C 165.910156 77.171875 165.949219 77.164062 166.007812 77.167969 Z M 154.269531 79.933594 C 154.273438 79.933594 154.273438 79.945312 154.277344 79.945312 L 156.300781 83.816406 C 157.914062 86.914062 159.378906 88.761719 163.554688 92.953125 C 167.816406 97.234375 169.488281 98.5625 172.582031 100.128906 C 181.984375 104.894531 190.777344 105.609375 200.441406 102.394531 C 209.21875 99.472656 216.832031 92.746094 221.492188 83.777344 C 222.429688 81.96875 223.011719 81.316406 223.558594 81.488281 C 223.976562 81.617188 226.355469 82.519531 228.835938 83.476562 C 231.316406 84.4375 237.910156 86.789062 243.492188 88.707031 C 262.070312 95.101562 266.457031 98.15625 269.191406 106.59375 L 270.113281 109.433594 C 270.121094 109.53125 270.125 109.636719 270.125 109.726562 C 270.121094 109.792969 270.105469 109.875 270.085938 109.972656 L 267.992188 113.714844 C 266.769531 115.890625 265.261719 118.285156 264.644531 119.039062 C 263.550781 120.371094 263.515625 120.382812 263.5 119.320312 C 263.480469 118.097656 262.210938 115.378906 261.40625 114.847656 C 260.570312 114.296875 258.03125 114.433594 257.40625 115.058594 C 256.214844 116.25 256.757812 116.882812 258.695312 116.574219 C 260.253906 116.324219 260.628906 116.433594 261.066406 117.25 C 261.847656 118.703125 261.738281 122.070312 260.910156 122.070312 C 260.539062 122.070312 258.960938 123.472656 257.40625 125.191406 C 255.851562 126.914062 254.464844 128.140625 254.324219 127.914062 C 254.074219 127.507812 254.441406 125.359375 255.640625 120.171875 C 255.972656 118.738281 256.140625 117.398438 256.015625 117.183594 C 255.480469 116.265625 254.144531 118.480469 253.582031 121.21875 C 252.148438 128.21875 251.929688 129.585938 251.332031 135.261719 C 251.066406 137.773438 250.273438 156.941406 249.722656 174.175781 C 249.460938 182.382812 249.082031 190.484375 248.878906 192.179688 C 248.667969 193.941406 246.761719 200.421875 244.417969 207.335938 C 242.164062 213.980469 239.628906 221.546875 238.789062 224.152344 C 235.097656 235.589844 228.652344 251.363281 225.488281 256.691406 C 224.457031 258.433594 223.613281 259.984375 223.613281 260.152344 C 223.613281 260.320312 224.066406 260.390625 224.628906 260.308594 C 226.882812 259.972656 233.414062 245.367188 240.683594 224.390625 C 241.269531 222.695312 242.464844 219.5 243.335938 217.289062 C 244.207031 215.074219 245.601562 211.292969 246.429688 208.886719 C 247.257812 206.480469 248.121094 204.628906 248.351562 204.769531 C 248.933594 205.132812 248.871094 218.066406 248.257812 222.949219 C 246.894531 233.828125 245.996094 236.976562 242.054688 244.660156 C 238.226562 252.125 233.800781 259.855469 228.46875 268.371094 C 226.375 271.714844 225.558594 273.425781 225.890625 273.757812 C 226.15625 274.023438 226.597656 274.105469 226.871094 273.9375 C 228.109375 273.175781 239.488281 253.78125 244.386719 244.089844 C 247.191406 238.550781 247.546875 238.058594 248.128906 238.851562 C 249.199219 240.3125 249.136719 244.890625 247.992188 249.023438 C 246.789062 253.371094 243.992188 259.53125 241.972656 262.289062 C 240.921875 263.71875 237.738281 267.183594 234.890625 269.984375 C 229.9375 274.859375 228.625 277.046875 231.746094 275.207031 C 233.273438 274.304688 240.328125 267.195312 243.152344 263.710938 L 244.882812 261.574219 L 245.414062 262.925781 C 246.363281 265.378906 247.101562 271.894531 247.289062 277.050781 C 247.289062 277.09375 247.289062 277.136719 247.289062 277.179688 C 247.285156 277.574219 247.273438 277.964844 247.261719 278.355469 L 247.140625 282.894531 L 247.140625 282.902344 C 247.054688 283.453125 246.933594 283.832031 246.777344 283.988281 C 246.464844 284.300781 245.488281 284.554688 244.617188 284.554688 C 240.167969 284.554688 231.355469 287.210938 219.816406 292.023438 C 209.222656 296.441406 200.816406 298.695312 191.253906 299.703125 C 187.113281 300.136719 177.535156 300.230469 173.773438 299.875 C 167.714844 299.300781 159.859375 297.675781 152.339844 295.449219 C 146.277344 293.648438 138.011719 292.546875 131.371094 292.644531 C 128.542969 292.6875 126.050781 292.535156 125.835938 292.304688 C 124.921875 291.347656 123.945312 282.347656 123.757812 273.160156 C 123.601562 265.3125 123.394531 262.960938 122.699219 261 C 122.289062 259.851562 122.074219 259.230469 122.074219 258.582031 C 122.078125 258.488281 122.085938 258.390625 122.09375 258.296875 C 122.09375 258.277344 122.101562 258.253906 122.101562 258.234375 C 122.175781 257.609375 122.433594 256.863281 122.890625 255.566406 C 124.363281 251.382812 124.25 248.894531 122.414062 244.949219 C 120.34375 240.5 120.292969 236.699219 122.230469 230.917969 L 123.613281 226.78125 L 122.824219 223.503906 C 121.660156 218.6875 121.792969 213.902344 123.21875 209.425781 C 123.871094 207.375 124.53125 205 124.691406 204.148438 C 125.03125 202.351562 125.609375 202.132812 125.972656 203.664062 C 126.679688 206.632812 132.148438 221.492188 134.222656 226.085938 C 138.34375 235.195312 145.804688 248.027344 150.867188 254.710938 C 152.976562 257.496094 157.117188 261.8125 157.671875 261.8125 C 158.695312 261.8125 157.949219 260.265625 155.6875 257.695312 C 154.351562 256.179688 152.351562 253.671875 151.242188 252.105469 C 146.292969 245.132812 136.480469 226.421875 132.605469 216.574219 C 131.015625 212.535156 127.96875 203.25 125.140625 193.839844 C 124.433594 191.496094 123.671875 189.042969 123.449219 188.390625 C 121.792969 183.585938 119.355469 168.902344 119.835938 166.625 C 119.976562 165.957031 119.792969 163.597656 119.433594 161.382812 C 117.695312 150.714844 117.375 139.195312 118.527344 129.175781 C 119.800781 118.058594 119.839844 115.949219 118.855469 113.316406 C 118.179688 111.507812 117.472656 110.628906 115.84375 109.554688 C 114.675781 108.78125 113.558594 107.867188 113.347656 107.527344 C 112.789062 106.617188 110.742188 106.777344 110.210938 107.773438 C 109.957031 108.246094 109.675781 110.003906 109.589844 111.679688 C 109.5 113.359375 109.21875 114.714844 108.964844 114.703125 C 108.25 114.671875 104.820312 108.746094 104.820312 107.535156 C 104.820312 105.875 106.8125 101.289062 108.828125 98.289062 C 111.707031 94.003906 114.363281 92.335938 120.375 91.039062 C 129.019531 89.171875 144.613281 84.222656 151.5625 81.140625 L 154.269531 79.9375 Z M 175.511719 88.078125 C 175.703125 88.070312 176.078125 88.132812 176.664062 88.234375 C 177.554688 88.390625 179.027344 88.757812 179.9375 89.046875 C 182.359375 89.808594 197.28125 89.746094 199.554688 88.964844 C 200.550781 88.621094 201.476562 88.449219 201.613281 88.582031 C 201.960938 88.929688 197.933594 91.203125 195.007812 92.316406 C 192.132812 93.40625 186.703125 93.816406 184.027344 93.144531 C 181.738281 92.570312 176.949219 90.058594 175.859375 88.855469 C 175.367188 88.3125 175.191406 88.09375 175.511719 88.078125 Z M 112.597656 109.855469 C 113.78125 109.898438 116.230469 112.65625 116.804688 114.703125 C 117.355469 116.667969 117.164062 122.019531 116.476562 123.804688 C 116.34375 124.148438 116.09375 124.429688 115.925781 124.425781 C 115.058594 124.398438 111.066406 121.449219 109.761719 119.871094 C 107.921875 117.640625 107.816406 116.722656 109.449219 117.128906 C 110.867188 117.484375 111.03125 117.160156 111.488281 113.066406 C 111.675781 111.417969 112.074219 109.980469 112.378906 109.882812 C 112.445312 109.859375 112.519531 109.851562 112.597656 109.855469 Z M 270.753906 113.359375 C 270.925781 113.371094 271.035156 113.625 271.191406 114.042969 C 272.078125 116.382812 273.40625 123.363281 273.726562 127.375 C 274.023438 131.105469 274.179688 131.609375 275.402344 132.695312 C 277.082031 134.191406 277.445312 135.582031 277.113281 139.253906 C 276.875 141.863281 277.097656 142.851562 279.445312 149.742188 C 281.691406 156.347656 288.523438 178.484375 288.628906 179.488281 C 288.625 179.515625 288.628906 179.542969 288.621094 179.570312 C 288.230469 179.996094 281.957031 182.023438 278.199219 182.921875 C 276.503906 183.324219 274.367188 183.855469 273.453125 184.097656 C 272.539062 184.339844 270.777344 184.792969 269.535156 185.101562 C 267.21875 185.683594 266.386719 186.964844 268.328125 186.964844 C 269.699219 186.964844 278.140625 184.890625 284.074219 183.09375 C 286.648438 182.3125 288.910156 181.855469 289.105469 182.070312 C 289.300781 182.289062 289.710938 183.214844 290.019531 184.125 C 290.519531 185.605469 290.46875 185.863281 289.597656 186.574219 C 288.273438 187.648438 279.585938 190.492188 273.214844 191.933594 C 270.34375 192.582031 267.394531 193.117188 266.664062 193.117188 L 265.328125 193.128906 L 265.585938 189.21875 C 266.183594 179.953125 266.484375 168.554688 266.753906 144.328125 L 267.046875 118.636719 C 267.097656 118.519531 267.152344 118.402344 267.214844 118.269531 L 268.894531 115.695312 C 270.011719 113.996094 270.46875 113.339844 270.753906 113.359375 Z M 102.929688 114.015625 C 103.125 114.015625 103.8125 115.027344 104.464844 116.261719 C 105.652344 118.511719 110.75 123.734375 114.28125 126.324219 L 116.148438 127.703125 L 115.734375 131.636719 C 115.273438 135.980469 115.660156 151.550781 116.367188 157.121094 C 116.613281 159.074219 117.003906 163.449219 117.246094 166.835938 C 117.484375 170.222656 117.902344 174.273438 118.167969 175.835938 C 118.730469 179.160156 121.148438 188.585938 122.550781 192.917969 C 123.089844 194.578125 123.394531 196.15625 123.226562 196.425781 C 122.589844 197.453125 120.871094 196.847656 119.136719 194.972656 C 117.214844 192.890625 116.960938 192.828125 112.296875 193.375 C 112.050781 193.402344 111.792969 193.425781 111.535156 193.449219 L 109.421875 193.429688 C 108.339844 193.417969 107.429688 193.402344 106.597656 193.382812 C 100.980469 192.898438 94.097656 191.105469 87.136719 188.234375 C 84.796875 187.269531 84.269531 186.839844 84.144531 185.824219 C 84.058594 185.097656 84.265625 184.492188 84.648438 184.34375 C 85.007812 184.207031 87.503906 184.859375 90.203125 185.796875 C 93.695312 187.011719 95.253906 187.355469 95.617188 186.992188 C 96.542969 186.070312 94.40625 184.65625 89.570312 182.976562 C 87.1875 182.148438 85.167969 181.410156 84.832031 181.242188 C 84.796875 181.1875 84.765625 181.128906 84.742188 181.066406 C 84.726562 179.871094 86.375 170.929688 87.421875 166.613281 C 88.726562 161.226562 92.492188 148.425781 93.578125 145.679688 C 94.625 143.027344 95.917969 135.960938 95.921875 132.878906 C 95.921875 131.21875 96.21875 130.320312 97.101562 129.273438 C 98.664062 127.417969 99.25 125.757812 99.25 123.175781 C 99.25 121.410156 99.539062 120.6875 100.90625 119.09375 C 102.082031 117.722656 102.570312 116.699219 102.570312 115.585938 C 102.570312 114.722656 102.730469 114.015625 102.925781 114.015625 Z M 265.035156 122.554688 C 265.070312 122.558594 265.09375 122.566406 265.117188 122.589844 C 265.46875 122.941406 264.542969 183.261719 264.148438 185.777344 C 263.710938 188.578125 262.695312 189.984375 259.867188 191.695312 C 257.910156 192.878906 256.601562 193.289062 254.160156 193.484375 L 250.992188 193.738281 L 251.3125 191.894531 C 251.964844 188.15625 252.550781 170.675781 252.519531 155.703125 C 252.492188 141.050781 252.917969 134.515625 254.039062 132.402344 C 254.90625 130.773438 260.195312 124.433594 260.691406 124.433594 C 261.03125 124.433594 261.097656 125.265625 260.890625 126.925781 C 259.984375 134.222656 256.480469 150.941406 255.210938 154.042969 C 254.890625 154.824219 254.234375 157.007812 253.746094 158.898438 C 253.035156 161.664062 252.972656 162.449219 253.453125 162.925781 C 253.933594 163.394531 254.175781 163.355469 254.664062 162.695312 C 255.164062 162.019531 257.109375 154.671875 259.703125 143.625 C 260.445312 140.457031 261.457031 134.847656 262.054688 130.59375 C 262.367188 128.378906 262.707031 126.140625 262.8125 125.621094 C 263.039062 124.519531 264.542969 122.496094 265.035156 122.550781 Z M 263.03125 192.179688 C 264.765625 192.179688 261.40625 196.636719 258.878906 197.691406 C 257.382812 198.316406 255.675781 198.433594 253.757812 198.03125 L 251.734375 197.601562 C 249.890625 197.207031 250.4375 195.96875 252.457031 195.96875 C 254.4375 195.96875 258.371094 194.660156 260.929688 193.15625 C 261.84375 192.617188 262.785156 192.179688 263.03125 192.179688 Z M 136.875 203.609375 C 135.855469 203.554688 136.210938 204.871094 138.222656 208.886719 C 149.191406 230.789062 169.660156 254.484375 189.199219 267.894531 C 192.503906 270.160156 195.207031 270.613281 193.816406 268.667969 C 193.625 268.402344 191.273438 266.628906 188.59375 264.734375 C 182.164062 260.1875 178.863281 257.425781 172.648438 251.414062 C 160.628906 239.785156 148.511719 223.761719 140.941406 209.480469 C 139.101562 206.011719 137.613281 203.734375 137.105469 203.636719 C 137.027344 203.621094 136.945312 203.613281 136.878906 203.609375 Z M 124.882812 264.570312 C 124.527344 264.601562 124.40625 264.804688 124.40625 265.15625 C 124.40625 265.691406 131.886719 269.472656 139.75 272.914062 C 142.925781 274.304688 147.023438 276.15625 148.851562 277.015625 C 150.679688 277.875 154.417969 279.371094 157.160156 280.347656 C 162.226562 282.152344 164.988281 282.492188 164.988281 281.296875 C 164.988281 281.171875 164.757812 280.988281 164.367188 280.765625 L 164.347656 280.75 C 164.179688 280.609375 163.945312 280.488281 163.707031 280.421875 L 163.679688 280.410156 C 162.667969 279.9375 161.105469 279.34375 159.050781 278.65625 C 152.285156 276.390625 141.136719 271.75 131.699219 267.265625 C 127.566406 265.300781 125.667969 264.507812 124.882812 264.570312 Z M 124.882812 264.570312 " fill-opacity="1" fill-rule="nonzero"/></g></svg>